<?xml version="1.0" encoding="utf-8"?>
<!-- Generator: Adobe Illustrator 26.2.1, SVG Export Plug-In . SVG Version: 6.00 Build 0)  -->
<svg version="1.1" id="Layer_1" xmlns="http://www.w3.org/2000/svg" xmlns:xlink="http://www.w3.org/1999/xlink" x="0px" y="0px"
	 viewBox="0 0 227 276.23" style="enable-background:new 0 0 227 276.23;" xml:space="preserve">
<style type="text/css">
	.st0{fill:#FFFFFF;stroke:#000000;stroke-width:5;stroke-miterlimit:10;}
	.st1{fill:#FFFFFF;stroke:#000000;stroke-miterlimit:10;}
</style>
<path class="st0" d="M201.47,266.34c-58.51,0-117.02,0-175.53,0"/>
<path class="st0" d="M28.06,268.74c-0.86-85.29-1.73-170.57-2.59-255.86"/>
<path class="st0" d="M196.34,130.31"/>
<path class="st1" d="M85.61,120.87"/>
<path class="st0" d="M149.87,14.35c-42.3-0.13-84.6-0.27-126.9-0.4"/>
<path class="st1" d="M-180.74,84.74"/>
<path class="st0" d="M147.34,13.47c0,18.07,0,36.14,0,54.22"/>
<path class="st1" d="M-164.23,158.03"/>
<ellipse class="st0" cx="148.34" cy="91.17" rx="27.11" ry="23.48"/>
<path class="st1" d="M-129.13,136.35"/>
<path class="st0" d="M148.34,162.05c0-15.8,0-31.6,0-47.4"/>
<path class="st0" d="M129.19,200.45c6.38-13.24,12.77-26.47,19.15-39.71"/>
<path class="st0" d="M181.23,194.87c-10.96-11.38-21.93-22.75-32.89-34.13"/>
<path class="st0" d="M121.23,122.44c9.26,2.62,18.52,5.25,27.78,7.87"/>
<path class="st0" d="M148.02,130.31c9.14-3.01,18.29-6.02,27.43-9.02"/>
<path class="st0" d="M68.36,14.22c-14.3,12.83-28.6,25.65-42.9,38.48"/>
<path class="st0" d="M73.82,266.34c-15.69-15.94-31.37-31.87-47.06-47.81"/>
</svg>
