<?xml version="1.0" encoding="utf-8"?>
<!-- Generator: Adobe Illustrator 26.2.1, SVG Export Plug-In . SVG Version: 6.00 Build 0)  -->
<svg version="1.1" id="Layer_1" xmlns="http://www.w3.org/2000/svg" xmlns:xlink="http://www.w3.org/1999/xlink" x="0px" y="0px"
	 viewBox="0 0 227 276.2" style="enable-background:new 0 0 227 276.2;" xml:space="preserve">
<style type="text/css">
	.st0{fill:#FFFFFF;stroke:#000000;stroke-width:3;stroke-miterlimit:10;}
	.st1{fill:#FFFFFF;stroke:#000000;stroke-miterlimit:10;}
	.st2{fill:#936226;stroke:#000000;stroke-width:5;stroke-miterlimit:10;}
	.st3{fill:#F4EB38;stroke:#000000;stroke-miterlimit:10;}
	.st4{fill:#F8DFEC;stroke:#000000;stroke-width:3;stroke-miterlimit:10;}
	.st5{fill:#D31E3E;stroke:#000000;stroke-width:0.75;stroke-miterlimit:10;}
	.st6{fill:#231F20;stroke:#000000;stroke-width:0.75;stroke-miterlimit:10;}
</style>
<path class="st0" d="M196.3,130.3"/>
<path class="st1" d="M-180.7,84.7"/>
<path class="st1" d="M-164.2,158"/>
<path class="st1" d="M-129.1,136.4"/>
<rect x="18" y="14.6" class="st2" width="17.5" height="231.2"/>
<rect x="99.8" y="-49.6" transform="matrix(6.123234e-17 -1 1 6.123234e-17 85.1371 131.8952)" class="st2" width="17.5" height="145.9"/>
<polygon class="st2" points="70.6,33.9 91.7,33.5 35.5,77.8 35.5,61.8 "/>
<rect x="110.9" y="155.3" transform="matrix(6.123234e-17 -1 1 6.123234e-17 -137.25 376.621)" class="st2" width="17.5" height="203.3"/>
<polygon class="st2" points="38.7,214 36.8,193.1 85,245.8 69.1,247 "/>
<rect x="164.1" y="33.5" class="st3" width="3.1" height="47.4"/>
<ellipse class="st4" cx="164.4" cy="91.9" rx="27.1" ry="23.5"/>
<path class="st0" d="M164.3,162.8c0-15.8,0-31.6,0-47.4"/>
<path class="st0" d="M145.2,201.2c6.4-13.2,12.8-26.5,19.1-39.7"/>
<path class="st0" d="M197.2,195.7c-11-11.4-21.9-22.8-32.9-34.1"/>
<path class="st0" d="M137.2,123.2c9.3,2.6,18.5,5.3,27.8,7.9"/>
<path class="st0" d="M164,131.1c9.1-3,18.3-6,27.4-9"/>
<path class="st5" d="M171.8,100.1c-0.7,3.2-9.3,7.6-13.7,7c-5.2-0.7-7.6-10.1-1.5-9.4C161.8,98.3,172.2,97.8,171.8,100.1z"/>
<circle class="st6" cx="156.3" cy="80" r="3.4"/>
<circle class="st6" cx="173" cy="83.4" r="3.4"/>
</svg>
