<?xml version="1.0" standalone="no"?>
<!DOCTYPE svg PUBLIC "-//W3C//DTD SVG 20010904//EN"
 "http://www.w3.org/TR/2001/REC-SVG-20010904/DTD/svg10.dtd">
<svg version="1.0" xmlns="http://www.w3.org/2000/svg"
 width="1104.000000pt" height="1104.000000pt" viewBox="0 0 1104.000000 1104.000000"
 preserveAspectRatio="xMidYMid meet">
<metadata>
Created by potrace 1.14, written by Peter Selinger 2001-2017
</metadata>
<g transform="translate(0.000000,1104.000000) scale(0.100000,-0.100000)"
fill="#000000" stroke="none">
<path d="M2067 10563 c-3 -5 -107 -8 -231 -7 l-226 0 0 -5118 0 -5118 38 -1
c261 -3 8273 0 8279 4 4 3 8 205 8 449 l-1 443 -712 0 c-391 0 -712 3 -712 7
0 4 -7 5 -15 2 -22 -9 -465 -10 -465 -2 0 4 -7 5 -15 2 -22 -9 -1425 -10
-1425 -2 0 4 -7 5 -15 2 -22 -9 -465 -10 -465 -2 0 4 -7 5 -15 2 -23 -9 -1425
-10 -1425 -1 0 5 -6 5 -12 1 -7 -5 -41 -7 -77 -6 -50 2 -68 7 -87 25 -13 12
-24 27 -24 34 0 6 -9 15 -20 18 -11 3 -20 9 -20 13 -1 8 -33 45 -260 292 -14
15 -58 64 -99 108 -40 45 -85 94 -100 110 -14 15 -64 70 -111 121 -47 51 -96
106 -110 121 -14 15 -47 52 -75 82 -27 30 -93 101 -145 158 -52 57 -111 121
-130 141 -19 20 -56 61 -82 90 -26 30 -68 77 -95 105 -26 28 -79 86 -118 129
-38 43 -88 97 -110 120 -58 63 -108 118 -215 235 -52 58 -114 125 -137 150
-128 138 -133 145 -134 175 0 16 0 1021 0 2232 l-1 2201 21 21 c12 12 24 21
27 21 3 0 11 6 18 13 7 6 28 23 46 37 18 14 63 49 99 78 36 29 71 56 76 60 42
31 118 92 155 123 10 8 31 24 45 35 15 10 36 27 48 38 12 10 58 46 102 79 44
34 82 64 85 67 3 3 34 28 70 55 36 28 67 52 70 55 25 25 111 90 118 90 6 0 12
4 14 9 2 5 32 32 68 60 36 28 70 54 75 59 6 4 48 38 95 74 47 37 95 75 108 85
13 10 29 23 35 28 7 6 44 35 82 65 39 30 72 57 75 60 3 3 46 37 95 75 50 38
95 74 102 80 23 19 38 31 108 85 39 29 82 63 96 74 64 51 99 79 174 138 44 35
86 69 94 76 43 41 -6 40 1436 38 l1380 -1 1 -642 c0 -354 -2 -644 -5 -644 -3
-1 -24 -3 -46 -5 -61 -4 -170 -20 -170 -24 0 -1 -9 -3 -20 -4 -11 -2 -47 -11
-80 -20 -33 -9 -64 -18 -70 -19 -5 -2 -20 -8 -31 -15 -12 -6 -24 -8 -28 -5 -3
3 -6 1 -6 -5 0 -7 -3 -11 -7 -10 -23 7 -263 -135 -263 -155 0 -6 -3 -8 -6 -4
-6 6 -62 -41 -98 -82 -12 -13 -30 -33 -42 -45 -81 -82 -186 -276 -210 -386 -3
-14 -7 -35 -9 -46 -27 -127 -24 -265 9 -399 13 -50 49 -146 67 -175 5 -8 14
-25 19 -38 37 -85 173 -239 285 -322 33 -25 63 -49 67 -55 4 -5 8 -6 8 -2 0 5
13 -1 30 -13 57 -40 255 -123 325 -135 11 -2 31 -6 45 -9 50 -10 86 -16 140
-22 30 -3 57 -8 60 -11 3 -2 5 -110 5 -239 l0 -234 -30 6 c-16 3 -48 12 -71
20 -22 7 -49 15 -60 17 -10 2 -26 6 -34 9 -8 3 -33 11 -55 16 -51 14 -160 45
-249 72 -37 11 -78 22 -90 24 -11 3 -37 10 -56 16 -29 9 -118 35 -155 44 -5 2
-17 6 -25 9 -8 4 -26 9 -40 11 -14 3 -41 10 -60 16 -82 26 -87 25 -95 -22 -4
-24 -12 -49 -17 -55 -11 -13 -2 -19 37 -26 11 -2 27 -7 35 -10 8 -4 24 -8 35
-10 11 -2 27 -6 35 -9 8 -3 42 -13 75 -23 33 -9 79 -23 102 -30 23 -7 44 -11
47 -7 3 3 6 0 6 -5 0 -6 8 -10 18 -8 9 1 23 -2 30 -8 6 -5 12 -7 12 -3 0 3 12
1 28 -5 15 -6 34 -12 42 -14 8 -2 37 -10 64 -19 27 -8 53 -13 58 -10 4 3 8 0
8 -6 0 -6 6 -10 13 -9 6 1 19 -1 27 -4 8 -3 35 -11 60 -18 58 -16 55 -15 120
-34 30 -9 60 -17 65 -19 93 -23 114 -32 117 -45 2 -9 3 -272 3 -586 l-2 -570
-57 -120 c-32 -66 -73 -154 -93 -195 -19 -41 -39 -82 -44 -90 -5 -8 -13 -24
-18 -35 -5 -11 -32 -68 -60 -128 -28 -59 -51 -111 -52 -115 0 -4 -7 -14 -14
-22 -7 -8 -14 -18 -14 -22 -1 -5 -13 -33 -26 -63 -14 -30 -25 -58 -24 -61 0
-4 -3 -10 -8 -13 -9 -7 -14 -16 -113 -224 -38 -82 -70 -153 -70 -158 0 -5 -4
-9 -10 -9 -5 0 -10 -5 -10 -10 0 -6 -25 -62 -55 -125 -30 -62 -55 -118 -55
-123 0 -6 -4 -12 -9 -14 -4 -1 -11 -13 -15 -25 -6 -19 0 -25 40 -42 26 -12 51
-21 55 -21 5 0 46 75 90 168 44 92 96 198 115 236 18 38 34 75 34 82 0 7 3 14
8 16 6 3 56 100 61 120 1 4 27 57 57 117 30 61 54 115 54 121 0 5 5 10 10 10
6 0 10 5 10 11 0 6 21 55 47 108 26 53 48 98 48 101 1 3 27 59 59 125 32 66
70 145 83 175 14 30 30 58 35 61 5 3 9 9 9 13 -4 32 11 35 37 8 9 -10 118
-124 242 -252 255 -263 291 -301 520 -539 91 -95 233 -243 317 -329 l151 -157
42 43 c24 24 39 46 35 50 -8 8 -299 310 -443 460 -215 223 -455 472 -570 590
-67 70 -157 163 -200 208 l-77 81 0 576 0 577 35 12 c19 7 37 13 40 13 3 1 12
4 20 7 8 4 76 25 150 49 74 24 137 45 140 48 3 4 12 7 20 7 16 2 382 120 415
134 11 5 59 21 106 35 116 36 116 36 101 78 -7 18 -12 40 -12 49 0 18 -23 30
-36 19 -8 -7 -155 -55 -161 -52 -2 0 -23 -8 -48 -19 -25 -11 -45 -17 -45 -15
0 2 -20 -4 -45 -15 -25 -11 -48 -19 -50 -19 -3 0 -90 -27 -193 -61 -103 -34
-194 -63 -202 -66 -8 -2 -62 -19 -118 -39 -57 -19 -107 -33 -110 -31 -8 5 -9
462 -2 469 3 3 34 8 70 11 36 4 72 9 80 11 8 2 32 6 52 9 55 8 232 67 240 80
4 6 8 7 8 3 0 -14 195 99 258 149 73 59 212 211 212 231 0 6 6 16 14 22 16 13
68 118 93 185 37 99 47 160 48 268 0 49 4 88 8 88 4 0 3 9 -3 20 -6 11 -9 24
-6 29 3 5 -5 51 -19 102 -35 134 -36 139 -46 139 -5 0 -6 7 -3 15 4 8 2 15 -4
15 -5 0 -12 10 -16 23 -16 64 -187 274 -281 347 -98 75 -297 180 -372 196 -6
1 -27 7 -45 12 -37 12 -131 31 -175 36 -15 2 -32 4 -36 5 -5 0 -8 20 -7 44 1
23 1 47 0 52 -1 6 -1 14 0 20 1 5 2 274 1 596 l0 586 312 0 c172 1 318 2 325
2 10 1 13 23 12 89 -1 48 0 92 1 97 1 6 1 14 0 19 -3 12 -3 207 0 221 1 6 0
15 -1 20 -1 6 -1 109 -1 230 l2 221 -73 1 c-40 1 -84 4 -98 6 -14 2 -29 1 -35
-2 -16 -9 -325 -7 -325 2 0 5 -6 5 -12 1 -18 -11 -268 -11 -268 0 0 5 -6 4
-12 -1 -11 -7 -122 -10 -138 -3 -3 1 -9 1 -15 0 -28 -7 -155 -4 -155 4 0 5 -5
4 -12 -1 -11 -7 -122 -10 -138 -3 -3 1 -9 1 -15 0 -28 -7 -195 -5 -195 3 0 4
-6 5 -12 0 -19 -11 -212 -10 -220 2 -5 6 -8 7 -8 0 0 -9 -296 -11 -360 -2 -14
2 -29 1 -35 -2 -16 -9 -325 -7 -325 2 0 5 -6 5 -12 1 -18 -11 -268 -11 -268 0
0 5 -6 4 -12 -1 -11 -7 -122 -10 -138 -3 -3 1 -9 1 -15 0 -28 -7 -155 -4 -155
4 0 5 -5 4 -12 -1 -11 -7 -122 -10 -138 -3 -3 1 -9 1 -15 0 -28 -7 -195 -5
-195 3 0 4 -6 5 -12 0 -19 -11 -212 -10 -220 2 -5 6 -8 7 -8 0 0 -9 -296 -11
-360 -2 -14 2 -29 1 -35 -2 -16 -9 -325 -7 -325 2 0 5 -6 5 -12 1 -18 -11
-268 -11 -268 0 0 5 -6 4 -12 -1 -11 -7 -122 -10 -138 -3 -3 1 -9 1 -15 0 -28
-7 -155 -4 -155 4 0 5 -5 4 -12 -1 -11 -7 -122 -10 -138 -3 -3 1 -9 1 -15 0
-28 -7 -195 -5 -195 3 0 4 -6 5 -12 1 -19 -12 -218 -11 -218 1 0 7 -3 7 -8 0
-6 -9 -256 -14 -287 -5 -5 1 -12 2 -15 1 -17 -7 -110 -5 -110 2 0 4 -8 4 -17
-1 -22 -10 -243 -10 -260 1 -6 4 -14 4 -16 0z m1522 -925 c-13 -11 -42 -34
-64 -53 -22 -18 -101 -80 -175 -139 -74 -59 -153 -121 -174 -139 -21 -18 -46
-36 -55 -41 -9 -5 -20 -15 -26 -21 -5 -6 -37 -32 -70 -58 -135 -105 -291 -229
-310 -246 -11 -9 -38 -30 -60 -47 -22 -16 -44 -34 -50 -40 -5 -6 -29 -25 -52
-43 l-43 -33 0 36 c-1 20 -1 182 -1 361 0 179 0 360 1 404 l0 78 552 0 c547 0
551 0 527 -19z m-1059 -7285 c0 -5 21 -30 47 -58 25 -27 87 -95 138 -150 51
-55 103 -112 116 -126 13 -15 67 -73 119 -129 52 -57 115 -125 140 -153 25
-27 66 -72 93 -100 26 -27 47 -54 47 -59 0 -5 5 -6 10 -3 6 3 10 2 10 -4 0 -5
15 -25 33 -43 38 -41 211 -228 250 -271 15 -17 27 -33 27 -36 0 -3 -182 -6
-405 -6 -223 0 -405 4 -405 8 0 5 -5 5 -11 1 -13 -8 -217 -9 -225 -2 -4 4 -7
828 -4 1101 0 20 5 37 10 37 6 0 10 -3 10 -7z"/>
</g>
</svg>
